<svg id="Layer_1" data-name="Layer 1" xmlns="http://www.w3.org/2000/svg" viewBox="0 0 248 112"><defs><style>.cls-1{fill:#fff;}</style></defs><title>full-logo-wht</title><path class="cls-1" d="M107.7,48h2.84v2.55H107.7Zm0,4.7h2.86V64H107.7Z"/><path class="cls-1" d="M145,47.73a8.08,8.08,0,0,1,8.27,8.16,8.28,8.28,0,1,1-16.55,0A8.08,8.08,0,0,1,145,47.73Zm0,13.88a5.42,5.42,0,0,0,5.27-5.72,5.28,5.28,0,1,0-10.55,0A5.42,5.42,0,0,0,145,61.61Z"/><path class="cls-1" d="M164.61,50.5h-5.25V48h13.41v2.5h-5.25V64h-2.91Z"/><path class="cls-1" d="M187.12,47.73a8.08,8.08,0,0,1,8.27,8.16,8.28,8.28,0,1,1-16.55,0A8.09,8.09,0,0,1,187.12,47.73Zm0,13.88a5.42,5.42,0,0,0,5.27-5.72,5.28,5.28,0,1,0-10.55,0A5.42,5.42,0,0,0,187.12,61.61Z"/><path class="cls-1" d="M203.25,48h6.18a4.9,4.9,0,0,1,5.09,5.21,5,5,0,0,1-5.09,5.27h-3.27V64h-2.91Zm5.63,8a2.53,2.53,0,0,0,2.69-2.75,2.49,2.49,0,0,0-2.64-2.71h-2.77V56Z"/><path class="cls-1" d="M222.06,48h9.58v2.5H225v4.19h5.38v2.5H225V61.5h7V64h-9.94Z"/><path class="cls-1" d="M121.88,61.5a10.07,10.07,0,0,0,1.17-1.44L131.42,48H118.59v2.5h7.91a10.07,10.07,0,0,0-1.17,1.44L116.93,64h13.31V61.5Z"/><path class="cls-1" d="M58,20.6a4.33,4.33,0,0,0,.1-.89A4.07,4.07,0,1,0,54,23.78a4,4,0,0,0,2-.56c.9,1.89,1.84,3.76,2.76,5.63q2,4.09,4,8.23C65.37,42.6,67.84,48.17,70,53.84c.35.93.66,1.86,1,2.79-3.67-.26-7.51-.71-11.17-1.28A5.81,5.81,0,0,0,50.91,51a47.58,47.58,0,0,0-6.57-6.44,30.05,30.05,0,0,0-4-2.73,13.59,13.59,0,0,0-2.31-1.07,6.08,6.08,0,0,0-2.9-.36,3.39,3.39,0,0,0-2.7,2.2,6.49,6.49,0,0,0-.33,2.78,23,23,0,0,0,.91,4.74c.17.6.39,1.17.58,1.76-8-.26-15.62.72-17.39,4.95C13.25,64,38.1,82.87,50,91.4a4.33,4.33,0,0,0-.1.89A4.07,4.07,0,1,0,54,88.22a4,4,0,0,0-2,.56c-.9-1.89-1.84-3.76-2.76-5.63q-2-4.09-4-8.23c-2.58-5.52-5-11.09-7.19-16.76-.35-.93-.66-1.86-1-2.8,3.66.27,7.5.72,11.16,1.29A5.82,5.82,0,0,0,57.12,61a47,47,0,0,0,6.56,6.44,30.05,30.05,0,0,0,3.95,2.73,13.59,13.59,0,0,0,2.31,1.07,6.08,6.08,0,0,0,2.9.36,3.41,3.41,0,0,0,2.71-2.2,6.63,6.63,0,0,0,.32-2.78A22.36,22.36,0,0,0,75,61.84c-.17-.6-.39-1.17-.58-1.76.76,0,1.52,0,2.27,0,7.15,0,13.51-1.16,15.12-5C94.77,48,69.92,29.13,58,20.6ZM36.24,58.88c2.4,5.66,5.11,11.14,7.93,16.56q2.11,4.07,4.32,8.08c.87,1.57,1.73,3.15,2.65,4.7C30.49,73.39,18.06,60.9,19.22,58.12c1.11-2.63,7.68-3.29,15.56-2.9C35.25,56.45,35.73,57.67,36.24,58.88Zm-.94-9.3a20.39,20.39,0,0,1-.65-4.26,4.29,4.29,0,0,1,.23-1.72.73.73,0,0,1,.27-.36.84.84,0,0,1,.43-.15A6.56,6.56,0,0,1,39,44.3a27.29,27.29,0,0,1,3.49,2.58,44,44,0,0,1,6.08,6.36l0,0,0,0c0,.06.12.08.17.13l0,0C45.18,52.9,40.6,52.29,36,52,35.76,51.21,35.49,50.39,35.3,49.58ZM72.73,62.42a21.8,21.8,0,0,1,.65,4.26,4.45,4.45,0,0,1-.24,1.72.73.73,0,0,1-.27.36.81.81,0,0,1-.43.15,6.59,6.59,0,0,1-3.39-1.21,26.52,26.52,0,0,1-3.48-2.58,43.52,43.52,0,0,1-6.09-6.36l0,0,0,0a2.09,2.09,0,0,0-.17-.14v0C62.84,59.1,67.41,59.71,72,60,72.26,60.79,72.53,61.61,72.73,62.42ZM88.8,53.88c-1.11,2.63-7.68,3.28-15.56,2.89-.47-1.22-.95-2.44-1.46-3.65-2.4-5.66-5.11-11.14-7.93-16.56q-2.12-4.06-4.32-8.08c-.87-1.57-1.72-3.14-2.64-4.68C74.1,36.21,90.22,50.48,88.8,53.88Z"/></svg>